<mxfile host="app.diagrams.net" modified="2021-05-15T12:38:14.595Z" agent="5.0 (X11; Linux x86_64) AppleWebKit/537.36 (KHTML, like Gecko) Chrome/90.0.4430.212 Safari/537.36" etag="R_5Ak139fZAuG3LajgSH" version="14.6.13" type="github">
  <diagram id="mnmN78z1y-yqWp5j1sd-" name="Page-1">
    <mxGraphModel dx="2266" dy="1238" grid="1" gridSize="10" guides="1" tooltips="1" connect="1" arrows="1" fold="1" page="1" pageScale="1" pageWidth="850" pageHeight="1100" math="0" shadow="0">
      <root>
        <mxCell id="0" />
        <mxCell id="1" parent="0" />
        <mxCell id="du2k7tsmQj2ySbag4zY6-1" value="Test" style="rounded=0;whiteSpace=wrap;html=1;" vertex="1" parent="1">
          <mxGeometry x="410" y="280" width="120" height="60" as="geometry" />
        </mxCell>
        <mxCell id="du2k7tsmQj2ySbag4zY6-2" value="BUILD(GITHUB SCM)" style="rounded=0;whiteSpace=wrap;html=1;" vertex="1" parent="1">
          <mxGeometry x="30" y="280" width="120" height="60" as="geometry" />
        </mxCell>
        <mxCell id="du2k7tsmQj2ySbag4zY6-3" value="Login Cerditials" style="rounded=0;whiteSpace=wrap;html=1;" vertex="1" parent="1">
          <mxGeometry x="220" y="280" width="120" height="60" as="geometry" />
        </mxCell>
        <mxCell id="du2k7tsmQj2ySbag4zY6-17" value="Deploy (Testing stage)" style="rounded=0;whiteSpace=wrap;html=1;" vertex="1" parent="1">
          <mxGeometry x="790" y="280" width="120" height="60" as="geometry" />
        </mxCell>
        <mxCell id="du2k7tsmQj2ySbag4zY6-33" style="edgeStyle=orthogonalEdgeStyle;rounded=0;orthogonalLoop=1;jettySize=auto;html=1;exitX=0.5;exitY=1;exitDx=0;exitDy=0;entryX=1;entryY=0.5;entryDx=0;entryDy=0;" edge="1" parent="1" source="du2k7tsmQj2ySbag4zY6-18" target="du2k7tsmQj2ySbag4zY6-28">
          <mxGeometry relative="1" as="geometry" />
        </mxCell>
        <mxCell id="du2k7tsmQj2ySbag4zY6-18" value="Analysys" style="rounded=0;whiteSpace=wrap;html=1;" vertex="1" parent="1">
          <mxGeometry x="600" y="280" width="120" height="60" as="geometry" />
        </mxCell>
        <mxCell id="du2k7tsmQj2ySbag4zY6-35" style="edgeStyle=orthogonalEdgeStyle;rounded=0;orthogonalLoop=1;jettySize=auto;html=1;exitX=0;exitY=0.5;exitDx=0;exitDy=0;entryX=0;entryY=0.5;entryDx=0;entryDy=0;" edge="1" parent="1" source="du2k7tsmQj2ySbag4zY6-28" target="du2k7tsmQj2ySbag4zY6-2">
          <mxGeometry relative="1" as="geometry" />
        </mxCell>
        <mxCell id="du2k7tsmQj2ySbag4zY6-28" value="Build Fails" style="rounded=0;whiteSpace=wrap;html=1;" vertex="1" parent="1">
          <mxGeometry x="510" y="400" width="120" height="60" as="geometry" />
        </mxCell>
        <mxCell id="du2k7tsmQj2ySbag4zY6-34" value="" style="shape=flexArrow;endArrow=classic;html=1;entryX=-0.028;entryY=0.632;entryDx=0;entryDy=0;entryPerimeter=0;" edge="1" parent="1" target="du2k7tsmQj2ySbag4zY6-1">
          <mxGeometry width="50" height="50" relative="1" as="geometry">
            <mxPoint x="340" y="320" as="sourcePoint" />
            <mxPoint x="390" y="270" as="targetPoint" />
          </mxGeometry>
        </mxCell>
        <mxCell id="du2k7tsmQj2ySbag4zY6-36" value="" style="shape=flexArrow;endArrow=classic;html=1;width=17;endSize=8.78;" edge="1" parent="1">
          <mxGeometry width="50" height="50" relative="1" as="geometry">
            <mxPoint x="150" y="320" as="sourcePoint" />
            <mxPoint x="210" y="320" as="targetPoint" />
          </mxGeometry>
        </mxCell>
        <mxCell id="du2k7tsmQj2ySbag4zY6-37" value="" style="shape=flexArrow;endArrow=classic;html=1;entryX=-0.018;entryY=0.632;entryDx=0;entryDy=0;entryPerimeter=0;" edge="1" parent="1" target="du2k7tsmQj2ySbag4zY6-18">
          <mxGeometry width="50" height="50" relative="1" as="geometry">
            <mxPoint x="530" y="320" as="sourcePoint" />
            <mxPoint x="580" y="270" as="targetPoint" />
          </mxGeometry>
        </mxCell>
        <mxCell id="du2k7tsmQj2ySbag4zY6-39" value="" style="shape=flexArrow;endArrow=classic;html=1;" edge="1" parent="1">
          <mxGeometry width="50" height="50" relative="1" as="geometry">
            <mxPoint x="720" y="320" as="sourcePoint" />
            <mxPoint x="780" y="320" as="targetPoint" />
          </mxGeometry>
        </mxCell>
      </root>
    </mxGraphModel>
  </diagram>
</mxfile>
